<svg xmlns="http://www.w3.org/2000/svg" width="64" height="64" viewBox="0 0 64 64" fill="none">
  <circle cx="32" cy="32" r="30" fill="#1E5AA8"/>
  <path d="M44.5 22.2C42.8 19.5 39.7 17.3 35.4 17.3C28.3 17.3 23.3 21.9 21.6 28.2H17V31.1H21.1C21.1 31.4 21.1 31.8 21.1 32.1C21.1 32.7 21.1 33.3 21.2 33.9H17V36.8H21.8C23.8 42.8 28.7 46.7 35.3 46.7C39.6 46.7 42.8 44.7 44.7 41.8L40.9 39.2C39.5 41.1 37.5 42.5 35 42.5C31 42.5 27.9 40.1 26.5 36.8H36.9V33.9H25.8C25.7 33.3 25.7 32.7 25.7 32.1C25.7 31.8 25.7 31.4 25.7 31.1H36.9V28.2H26.4C27.8 24.5 31 21.6 35.2 21.6C37.8 21.6 39.8 22.8 41.1 24.9L44.5 22.2Z" fill="white"/>
</svg>
