<svg width="32" height="32" viewBox="0 0 32 32" fill="none" xmlns="http://www.w3.org/2000/svg">
  <circle cx="16" cy="16" r="16" fill="#2775CA"/>
  <path d="M20.5 18.75C20.5 16.68 19.13 15.75 16.5 15.38C14.5 15.08 14 14.63 14 13.75C14 12.87 14.63 12.25 16 12.25C17.25 12.25 17.75 12.75 17.88 13.63H20.38C20.25 11.88 19.13 10.38 17 10.13V8H15V10.13C12.88 10.38 11.5 11.75 11.5 13.75C11.5 15.75 12.88 16.75 15.5 17.13C17.38 17.43 18 17.88 18 18.75C18 19.63 17.25 20.25 16 20.25C14.63 20.25 13.88 19.63 13.75 18.63H11.25C11.38 20.63 12.75 21.88 15 22.13V24H17V22.13C19.13 21.88 20.5 20.5 20.5 18.75Z" fill="white"/>
</svg>
