<svg xmlns="http://www.w3.org/2000/svg" width="64" height="64" viewBox="0 0 64 64" fill="none">
  <circle cx="32" cy="32" r="30" fill="#26A17B"/>
  <path d="M18 19H46V24.3H35.8V27.6C41.8 27.9 46.4 29.2 46.4 30.8C46.4 32.7 40.3 34.2 32.8 34.2C25.3 34.2 19.2 32.7 19.2 30.8C19.2 29.3 23.4 28 29.2 27.7V24.3H18V19ZM30.9 24.3V31.7C31.6 31.8 32.3 31.8 33.1 31.8C33.7 31.8 34.4 31.8 35 31.7V24.3H30.9Z" fill="white"/>
  <path d="M32 36.4C39.6 36.4 45.8 35 45.8 33.3C45.8 31.6 39.6 30.2 32 30.2C24.4 30.2 18.2 31.6 18.2 33.3C18.2 35 24.4 36.4 32 36.4Z" fill="#1E7C61"/>
</svg>
